# xmcd
#
# Track frame offsets: 
#        150
#        41187
#        68895
#        97125
#        132532
#        161152
#
# Disc length: 2413 seconds
#
# Revision: 7
# Processed by: cddbd v1.5.2PL0 Copyright (c) Steve Scherf et al.
# Submitted via: ExactAudioCopy v0.95b4
#
DISCID=5b096b06
DTITLE=Miles Davis - Steamin' With The Miles Davis Quintet
DYEAR=1956
DGENRE=Jazz
TTITLE0=Surrey With The Fringe On Top
TTITLE1=Salt Peanuts
TTITLE2=Something I Dreamed Last Night
TTITLE3=Diane
TTITLE4=Well, You Needn't
TTITLE5=When I Fall In Love
EXTD=Miles Davis: Trumpet\nJohn Coltrane: Tenor Saxophone\nRed Garland
EXTD=: Piano\nPaul Chambers: Bass\nPhilly Joe Jones: Drums YEAR: 1956
EXTT0=
EXTT1=
EXTT2=
EXTT3=
EXTT4=
EXTT5=
PLAYORDER=
